<svg xmlns="http://www.w3.org/2000/svg" height="24" viewBox="0 -960 960 960" width="24"><path d="M257.478-126.174q-104.498 0-178.803-71.456Q4.37-269.087 4.37-372.941q0-86.159 48.739-155.066 48.739-68.906 130.456-91.428 23.239-72.522 91.141-136.261 67.903-63.739 149.424-63.739 44.778 0 76.824 30.262Q533-758.912 533-715.239v214.826l54.522-51 73.761 74L480-296.891 299.478-477.413l74-74 53.522 51v-213.761q-70.326 18.718-108.707 76.846-38.382 58.129-38.382 120.198h-21.626q-58.622 0-100.062 40.159-41.44 40.16-41.44 98.732 0 58.804 41.001 98.848 41.001 40.043 98.694 40.043h489.681q40.211 0 69.015-28.974 28.804-28.974 28.804-69.917 0-40.804-28.71-69.848-28.711-29.043-71.067-29.043h-62.592v-82.153q0-43.282-19.163-84.75Q643.283-645.5 613-670.456v-131.935q75.957 31.478 126.717 109.543 50.761 78.065 53.674 148.174 72.239 16.674 118 74.702 45.761 58.027 45.761 133.168 0 87.543-61.573 149.087-61.574 61.543-149.536 61.543H257.478ZM480.761-529.87Z"/></svg>