<svg xmlns="http://www.w3.org/2000/svg" height="24" viewBox="0 -960 960 960" width="24"><path d="M479.96-106.413q-39.677 0-67.536-28.081-27.859-28.08-27.859-67.513 0-39.63 27.996-67.692 27.995-28.062 67.479-28.062 39.677 0 67.536 28.157 27.859 28.156 27.859 67.695 0 39.539-27.984 67.518-27.983 27.978-67.491 27.978Zm0-278.152q-39.677 0-67.536-27.996-27.859-27.995-27.859-67.479 0-39.677 27.996-67.536 27.995-27.859 67.479-27.859 39.677 0 67.536 27.984 27.859 27.983 27.859 67.491 0 39.677-27.984 67.536-27.983 27.859-67.491 27.859Zm0-277.674q-39.677 0-67.536-28.206-27.859-28.207-27.859-67.816t27.996-67.467q27.995-27.859 67.479-27.859 39.677 0 67.536 27.984 27.859 27.983 27.859 67.542 0 39.658-27.984 67.74-27.983 28.082-67.491 28.082Z"/></svg>